<?xml version="1.0" standalone="no"?>
<!DOCTYPE svg PUBLIC "-//W3C//DTD SVG 20010904//EN"
 "http://www.w3.org/TR/2001/REC-SVG-20010904/DTD/svg10.dtd">
<svg version="1.0" xmlns="http://www.w3.org/2000/svg"
 width="579.000000pt" height="133.000000pt" viewBox="0 0 579.000000 133.000000"
 preserveAspectRatio="xMidYMid meet">

<g transform="translate(0.000000,133.000000) scale(0.100000,-0.100000)"
fill="#000000" stroke="none">
<path d="M932 1310 c-181 -64 -295 -238 -279 -427 6 -81 27 -116 65 -107 103
24 223 118 271 212 33 65 54 169 46 231 -13 107 -26 118 -103 91z m-52 -269
c0 -99 -71 -201 -157 -226 -19 -5 -23 -1 -28 29 -15 76 43 191 120 238 54 33
65 26 65 -41z"/>
<path d="M5094 1206 c-92 -83 -153 -225 -141 -327 l6 -47 -92 -4 c-115 -5
-183 -35 -268 -118 -79 -77 -78 -90 10 -173 89 -84 153 -110 269 -111 l82 -1
-6 -41 c-7 -50 11 -142 39 -203 21 -45 116 -154 149 -172 24 -13 50 3 112 67
77 81 126 214 112 308 l-7 41 60 -3 c113 -7 217 37 309 129 68 69 67 85 -5
158 -83 82 -154 114 -270 119 l-92 4 6 47 c7 61 -19 161 -60 230 -36 60 -120
141 -147 141 -10 0 -40 -20 -66 -44z m109 -286 c37 -43 57 -97 57 -152 0 -35
0 -35 54 -41 62 -6 120 -33 159 -74 l27 -29 -27 -26 c-45 -42 -107 -68 -163
-68 l-50 0 0 -48 c0 -54 -35 -134 -75 -172 l-25 -23 -25 23 c-40 38 -75 118
-75 172 l0 48 -50 0 c-55 0 -106 21 -159 66 l-32 27 28 29 c39 42 97 69 159
75 54 6 54 6 54 41 0 55 20 109 57 152 19 22 38 40 43 40 5 0 24 -18 43 -40z"/>
<path d="M2725 1031 c-91 -25 -100 -30 -103 -53 -3 -26 16 -38 64 -38 21 0 22
-5 29 -187 4 -104 5 -263 2 -355 l-5 -167 47 -16 c114 -38 264 -35 350 7 55
26 111 81 134 131 71 148 31 304 -93 370 -87 45 -167 34 -245 -34 l-38 -34 6
60 c4 33 7 120 8 194 2 172 9 167 -156 122z m335 -438 c28 -29 39 -49 44 -86
13 -88 -10 -167 -60 -206 -30 -24 -97 -28 -139 -9 l-25 11 0 148 0 148 28 15
c15 8 47 15 71 16 37 0 49 -5 81 -37z"/>
<path d="M207 929 c-190 -45 -262 -243 -131 -358 25 -22 83 -54 136 -76 112
-46 158 -87 158 -138 0 -70 -66 -105 -164 -86 -64 12 -79 27 -101 100 -18 59
-20 61 -48 55 -16 -3 -34 -6 -39 -6 -5 0 -7 -41 -6 -92 l3 -92 49 -18 c88 -33
182 -41 265 -24 133 28 206 92 217 193 13 101 -42 168 -186 228 -36 15 -85 38
-108 52 -112 64 -77 193 53 193 66 0 87 -17 110 -87 16 -52 17 -53 56 -53 l39
0 -6 88 c-4 59 -11 91 -21 99 -37 29 -192 42 -276 22z"/>
<path d="M705 720 c-103 -25 -110 -29 -113 -53 -3 -24 1 -28 41 -38 54 -13 57
-22 57 -184 0 -161 -4 -174 -51 -181 -36 -6 -39 -9 -39 -41 l0 -33 168 2 167
3 3 30 c3 29 0 32 -40 40 l-43 10 -1 229 c-1 181 -4 230 -15 237 -8 5 -16 8
-19 8 -3 -1 -54 -14 -115 -29z"/>
<path d="M1200 741 c-82 -25 -158 -99 -185 -181 -21 -65 -17 -167 11 -225 26
-56 87 -111 145 -130 117 -39 247 -7 308 77 36 48 37 56 14 73 -14 11 -23 9
-50 -12 -91 -70 -218 -41 -264 61 -36 79 -41 76 157 76 l177 0 -7 54 c-16 142
-98 218 -232 215 -27 0 -60 -4 -74 -8z m134 -92 c14 -17 26 -38 26 -47 0 -9 3
-27 6 -39 6 -23 5 -23 -100 -23 -119 0 -122 3 -92 74 18 43 51 66 97 66 29 0
43 -7 63 -31z"/>
<path d="M1670 721 c-103 -27 -105 -28 -105 -56 0 -25 5 -30 34 -36 18 -4 37
-13 42 -21 5 -7 8 -85 6 -173 l-2 -160 -35 -11 c-29 -10 -36 -17 -38 -43 l-3
-32 158 3 158 3 0 29 c0 25 -5 31 -32 38 -28 7 -33 13 -38 51 -3 23 -5 96 -3
162 l3 120 47 23 c42 21 52 22 83 12 57 -19 65 -47 65 -215 l0 -145 -30 -7
c-37 -7 -44 -17 -36 -49 l6 -24 144 0 144 0 4 30 c4 26 1 31 -28 40 -18 6 -35
18 -38 26 -3 9 -6 83 -6 165 0 143 1 149 23 163 37 23 75 27 112 12 54 -23 65
-60 65 -216 l0 -131 -36 -15 c-30 -12 -35 -19 -32 -42 l3 -27 153 -3 153 -3
-3 33 c-3 28 -8 33 -40 41 l-38 9 0 134 c0 209 -23 278 -110 322 -77 38 -170
25 -240 -35 l-39 -34 -16 25 c-22 33 -92 66 -138 66 -50 0 -105 -24 -144 -62
l-33 -32 0 35 c0 31 -15 61 -29 58 -4 0 -53 -13 -111 -28z"/>
<path d="M3445 722 c-98 -27 -100 -28 -100 -57 0 -25 5 -30 36 -38 35 -8 37
-11 43 -60 8 -66 8 -144 0 -229 l-7 -67 -36 -8 c-31 -8 -36 -13 -36 -38 l0
-30 178 -3 177 -2 0 33 c0 32 -2 34 -52 43 l-53 9 -3 142 c-2 135 -1 142 20
168 20 23 26 25 51 16 38 -15 98 -13 119 3 27 20 39 61 27 96 -8 22 -20 33
-49 41 -33 10 -44 9 -82 -9 -27 -14 -53 -37 -71 -64 l-27 -42 0 56 c0 42 -4
57 -16 62 -9 3 -16 6 -17 5 -1 0 -47 -13 -102 -27z"/>
<path d="M4020 719 c-81 -38 -130 -83 -130 -120 0 -38 33 -59 92 -59 l48 0 0
41 c0 59 14 79 56 79 53 0 104 -53 104 -108 0 -35 -3 -41 -27 -46 -103 -25
-224 -69 -246 -90 -77 -71 -15 -202 106 -225 55 -10 107 6 147 44 28 27 50 27
50 1 0 -23 39 -49 72 -48 18 0 59 11 91 24 54 21 58 25 55 53 -3 26 -8 30 -36
33 -47 5 -55 32 -47 177 6 113 5 123 -17 165 -55 106 -190 140 -318 79z m159
-405 c-6 -8 -27 -14 -46 -14 -63 0 -109 76 -67 111 9 8 40 19 68 24 l51 11 3
-59 c2 -35 -2 -65 -9 -73z"/>
</g>
</svg>
